<?xml version="1.0" encoding="iso-8859-1"?>
<!-- Generator: Adobe Illustrator 17.0.0, SVG Export Plug-In . SVG Version: 6.00 Build 0)  -->
<!DOCTYPE svg PUBLIC "-//W3C//DTD SVG 1.1//EN" "http://www.w3.org/Graphics/SVG/1.1/DTD/svg11.dtd">
<svg version="1.1" id="Layer_1" xmlns="http://www.w3.org/2000/svg" xmlns:xlink="http://www.w3.org/1999/xlink" x="0px" y="0px"
	 width="50px" height="50px" viewBox="0 0 50 50" style="enable-background:new 0 0 50 50;" xml:space="preserve">
<path style="fill:#13E5CC;" d="M25,1.243C11.879,1.243,1.243,11.879,1.243,25S11.879,48.757,25,48.757S48.757,38.121,48.757,25
	S38.121,1.243,25,1.243z M29.513,9.025l-5.226,12.701l-3.801-9.112L29.513,9.025z M18.629,13.353l3.814,9.143L9.265,17.077
	L18.629,13.353z M8.601,18.966l13.178,5.419l-9.363,3.724L8.601,18.966z M13.186,29.956l9.438-3.752l-5.463,13.282L13.186,29.956z
	 M18.603,41.236l5.75-13.978l5.913,14.174C26.447,42.684,22.365,42.617,18.603,41.236z M35.82,29.072L31.45,39.474l-6.046-14.495
	l14.606-6.093L35.82,29.072z M26.129,22.509l5.858-14.242c3.749,1.714,6.708,4.599,8.522,8.244L26.129,22.509z"/>
</svg>
