<?xml version="1.0" encoding="utf-8"?>
<!-- Generator: Adobe Illustrator 17.0.0, SVG Export Plug-In . SVG Version: 6.00 Build 0)  -->
<!DOCTYPE svg PUBLIC "-//W3C//DTD SVG 1.1//EN" "http://www.w3.org/Graphics/SVG/1.1/DTD/svg11.dtd">
<svg version="1.1" id="Layer_1" xmlns="http://www.w3.org/2000/svg" xmlns:xlink="http://www.w3.org/1999/xlink" x="0px" y="0px"
	 width="50px" height="50px" viewBox="0 0 50 50" enable-background="new 0 0 50 50" xml:space="preserve">
<polygon fill="#212121" points="12.808,30.059 16.964,40.024 22.676,26.136 "/>
<polygon fill="#212121" points="8.014,18.569 12.002,28.129 21.792,24.235 "/>
<polygon fill="#212121" points="29.879,8.174 20.441,11.927 24.415,21.454 "/>
<polygon fill="#212121" points="18.498,12.7 8.709,16.594 22.485,22.26 "/>
<path fill="#212121" d="M18.471,41.853c3.934,1.444,8.202,1.514,12.193,0.205l-6.182-14.82L18.471,41.853z"/>
<path fill="#212121" d="M32.465,7.382L26.34,22.273l15.035-6.271C39.479,12.191,36.385,9.174,32.465,7.382z"/>
<polygon fill="#212121" points="31.904,40.01 36.474,29.135 40.853,18.485 25.582,24.855 "/>
</svg>
