<?xml version="1.0" encoding="iso-8859-1"?>
<!-- Generator: Adobe Illustrator 17.0.0, SVG Export Plug-In . SVG Version: 6.00 Build 0)  -->
<!DOCTYPE svg PUBLIC "-//W3C//DTD SVG 1.1//EN" "http://www.w3.org/Graphics/SVG/1.1/DTD/svg11.dtd">
<svg version="1.1" id="Layer_1" xmlns="http://www.w3.org/2000/svg" xmlns:xlink="http://www.w3.org/1999/xlink" x="0px" y="0px"
	 width="50px" height="50px" viewBox="0 0 50 50" style="enable-background:new 0 0 50 50;" xml:space="preserve">
<g>
	<g>
		<path style="fill:#8C8C8C;" d="M26.3,8.106v13.406l10.158-9.006l1.957-1.736l3.235-2.868c-4.012-3.903-9.39-6.409-15.35-6.729
			c-0.43-0.023-0.864-0.036-1.3-0.036c-0.44,0-0.876,0.013-1.31,0.036c-12.579,0.68-22.57,11.094-22.57,23.843
			s9.991,23.163,22.57,23.843v-4.317v-2.614V38.45V26.523H11.208v-3.299H23.69V8.106C14.933,8.776,8.033,16.089,8.033,25.018
			c0,8.226,5.855,15.084,13.625,16.636v2.649c-9.218-1.586-16.233-9.614-16.233-19.284c0-10.37,8.065-18.851,18.265-19.526
			c0.433-0.029,0.869-0.048,1.31-0.048c0.437,0,0.87,0.019,1.3,0.048V8.106z"/>
		<path style="fill:#8C8C8C;" d="M38.523,39.162l-1.951-1.742L26.3,28.249V41.93v2.614v4.317c6.007-0.322,11.424-2.865,15.446-6.823
			L38.523,39.162z"/>
	</g>
	<path style="fill:#13E5CC;" d="M43.851,10.36l-3.23,2.864l-1.958,1.736l-11.186,9.917l11.278,10.068l1.957,1.747l3.222,2.876
		c3.101-4.029,4.946-9.074,4.946-14.551C48.879,19.493,47.002,14.406,43.851,10.36z"/>
</g>
</svg>
